<?xml version="1.0" encoding="utf-8"?>
<?xml-stylesheet type="text/xsl" href="rss1.xsl"?>
<rss version="2.0" xmlns:atom="http://www.w3.org/2005/Atom" xmlns:content="http://purl.org/rss/1.0/modules/content/" xmlns:dc="http://purl.org/dc/elements/1.1/" xmlns:media="http://search.yahoo.com/mrss/">
<channel>
 <title>Getty</title>
 <link>http://www.gettyimg.com/</link>
 <atom:link href="http://www.gettyimg.com/" rel="self" type="application/rss+xml" />

 
                <item>
                <title><![CDATA[【HD Live Performances】FEED - Dolly Parton - Dallas Cowboys Halftime Show (2023) 1080i HDTV Backhaul FLAC 5.1 H.264-TrollHD]]></title>
                <link><![CDATA[https://sharemania.us/threads/dolly-parton-dallas-cowboys-halftime-show-2023-1080i-hdtv-backhaul-flac-5-1-h-264-trollhd.234487/]]></link>
                <description><![CDATA[<article>
<blockquote class="messageText SelectQuoteContainer ugc baseHtml">
<div style="text-align: center"><b><span style="color: #ff0000">Dolly Parton - Dallas Cowboys Halftime Show (2023) 1080i HDTV Backhaul FLAC 5.1 H.264-TrollHD</span></b><br>
<br>
<img src="https://images2.imgbox.com/67/74/PACTIuPL_o.jpg" class="bbCodeImage LbImage" alt="[​IMG]" data-url="https://images2.imgbox.com/67/74/PACTIuPL_o.jpg" style=""> <br>
<img src="https://images2.imgbox.com/ab/c8/fePQzvvC_o.jpg" class="bbCodeImage LbImage" alt="[​IMG]" data-url="https://images2.imgbox.com/ab/c8/fePQzvvC_o.jpg" style=""> <img src="https://images2.imgbox.com/11/6f/puNKG8co_o.jpg" class="bbCodeImage LbImage" alt="[​IMG]" data-url="https://images2.imgbox.com/11/6f/puNKG8co_o.jpg" style=""> <img src="https://images2.imgbox.com/1a/13/1mgRUp66_o.jpg" class="bbCodeImage LbImage" alt="[​IMG]" data-url="https://images2.imgbox.com/1a/13/1mgRUp66_o.jpg" style=""> <img src="https://images2.imgbox.com/1f/ac/RXB730e4_o.jpg" class="bbCodeImage LbImage" alt="[​IMG]" data-url="https://images2.imgbox.com/1f/ac/RXB730e4_o.jpg" style=""> <br>
<div style="text-align: center">​</div>
<div class="ToggleTriggerAnchor bbCodeSpoilerContainer">
<button type="button" class="button bbCodeSpoilerButton ToggleTrigger Tooltip JsOnly" data-target="> .SpoilerTarget"><span>Spoiler: <span class="SpoilerTitle">MediaInfo</span></span></button>
<div class="SpoilerTarget bbCodeSpoilerText">Format : Matroska<br>
Format version : Version 4<br>
File size : 3.18 GiB<br>
Duration : 7 min 15 s<br>
Overall bit rate mode : Variable<br>
Overall bit rate : 62.8 Mb/s<br>
Encoded date : UTC 2023-11-24 01:53:58<br>
Writing application : mkvmerge v77.0 ('Elemental') 64-bit<br>
Writing library : libebml v1.4.4 + libmatroska v1.7.1<br>
<br>
Video #1<br>
ID : 1<br>
Format : AVC<br>
Format/Info : Advanced Video Codec<br>
Format profile : High 4:2:2@L4.1<br>
Format settings : CABAC / 2 Ref Frames<br>
Format settings, CABAC : Yes<br>
Format settings, Reference : 2 frames<br>
Codec ID : V_MPEG4/ISO/AVC<br>
Duration : 7 min 15 s<br>
Bit rate mode : Constant<br>
Bit rate : 14.7 Mb/s<br>
Nominal bit rate : 16.0 Mb/s<br>
Width : 1 920 pixels<br>
Height : 1 080 pixels<br>
Display aspect ratio : 16:9<br>
Frame rate mode : Variable<br>
Frame rate : 59.940 (60000/1001) FPS<br>
Original frame rate : 29.970 (30000/1001) FPS<br>
Color space : YUV<br>
Chroma subsampling : 4:2:2<br>
Bit depth : 10 bits<br>
Scan type : Interlaced<br>
Scan type, store method : Separated fields<br>
Scan order : Top Field First<br>
Bits/(Pixel*Frame) : 0.118<br>
Stream size : 762 MiB (23%)<br>
Default : Yes<br>
Forced : No<br>
<br>
Video #2<br>
ID : 2<br>
Format : AVC<br>
Format/Info : Advanced Video Codec<br>
Format profile : High 4:2:2@L4.1<br>
Format settings : CABAC / 2 Ref Frames<br>
Format settings, CABAC : Yes<br>
Format settings, Reference : 2 frames<br>
Codec ID : V_MPEG4/ISO/AVC<br>
Duration : 7 min 15 s<br>
Bit rate mode : Constant<br>
Bit rate : 15.2 Mb/s<br>
Nominal bit rate : 16.0 Mb/s<br>
Width : 1 920 pixels<br>
Height : 1 080 pixels<br>
Display aspect ratio : 16:9<br>
Frame rate mode : Constant<br>
Frame rate : 59.940 (60000/1001) FPS<br>
Color space : YUV<br>
Chroma subsampling : 4:2:2<br>
Bit depth : 10 bits<br>
Scan type : Interlaced<br>
Scan type, store method : Separated fields<br>
Scan order : Top Field First<br>
Bits/(Pixel*Frame) : 0.122<br>
Stream size : 787 MiB (24%)<br>
Default : Yes<br>
Forced : No<br>
<br>
Video #3<br>
ID : 3<br>
Format : AVC<br>
Format/Info : Advanced Video Codec<br>
Format profile : High 4:2:2@L4.1<br>
Format settings : CABAC / 2 Ref Frames<br>
Format settings, CABAC : Yes<br>
Format settings, Reference : 2 frames<br>
Codec ID : V_MPEG4/ISO/AVC<br>
Duration : 7 min 15 s<br>
Bit rate mode : Constant<br>
Bit rate : 15.1 Mb/s<br>
Nominal bit rate : 16.0 Mb/s<br>
Width : 1 920 pixels<br>
Height : 1 080 pixels<br>
Display aspect ratio : 16:9<br>
Frame rate mode : Constant<br>
Frame rate : 59.940 (60000/1001) FPS<br>
Color space : YUV<br>
Chroma subsampling : 4:2:2<br>
Bit depth : 10 bits<br>
Scan type : Interlaced<br>
Scan type, store method : Separated fields<br>
Scan order : Top Field First<br>
Bits/(Pixel*Frame) : 0.122<br>
Stream size : 785 MiB (24%)<br>
Default : Yes<br>
Forced : No<br>
<br>
Video #4<br>
ID : 4<br>
Format : AVC<br>
Format/Info : Advanced Video Codec<br>
Format profile : High 4:2:2@L4.1<br>
Format settings : CABAC / 2 Ref Frames<br>
Format settings, CABAC : Yes<br>
Format settings, Reference : 2 frames<br>
Codec ID : V_MPEG4/ISO/AVC<br>
Duration : 7 min 15 s<br>
Bit rate mode : Constant<br>
Bit rate : 14.8 Mb/s<br>
Nominal bit rate : 16.0 Mb/s<br>
Width : 1 920 pixels<br>
Height : 1 080 pixels<br>
Display aspect ratio : 16:9<br>
Frame rate mode : Constant<br>
Frame rate : 59.940 (60000/1001) FPS<br>
Color space : YUV<br>
Chroma subsampling : 4:2:2<br>
Bit depth : 10 bits<br>
Scan type : Interlaced<br>
Scan type, store method : Separated fields<br>
Scan order : Top Field First<br>
Bits/(Pixel*Frame) : 0.119<br>
Stream size : 770 MiB (24%)<br>
Default : Yes<br>
Forced : No<br>
<br>
Audio<br>
ID : 5<br>
Format : FLAC<br>
Format/Info : Free Lossless Audio Codec<br>
Codec ID : A_FLAC<br>
Duration : 7 min 15 s<br>
Bit rate mode : Variable<br>
Bit rate : 2 925 kb/s<br>
Channel(s) : 6 channels<br>
Channel layout : L R C LFE Lb Rb<br>
Sampling rate : 53.7 kHz<br>
Frame rate : 11.656 FPS (4608 SPF)<br>
Bit depth : 24 bits<br>
Compression mode : Lossless<br>
Stream size : 152 MiB (5%)<br>
Writing library : Lavf60.17.100<br>
Language : English<br>
Default : Yes<br>
Forced : No</div>
</div><div style="text-align: center">
<div class="bbCodeBlock bbCodeVfcHH HiddenContent">
<div class="attribution type">Hidden Content:</div>
<blockquote>You must either reply or click 'Like' to see the hidden information contained here.</blockquote>
</div></div></div>
<div class="messageTextEndMarker">&nbsp;</div>
</blockquote>
</article>]]></description>
                <author><![CDATA[melodie]]></author>
                </item>

                </channel></rss>